<svg xmlns="http://www.w3.org/2000/svg" viewBox="0 0 180 180">
  <path fill="#55d400" d="M28.55 110.098c0 .97.746 1.717 1.717 1.717h2.538a1.69 1.69 0 0 0 1.718-1.717v-1.568a8.51 8.51 0 0 0-8.512-8.512H12.57c-4.704 0-8.587 3.808-8.587 8.512v22.176c0 4.704 3.883 8.512 8.587 8.512h13.44a8.51 8.51 0 0 0 8.512-8.512v-.896a1.69 1.69 0 0 0-1.718-1.718h-2.538a1.69 1.69 0 0 0-1.718 1.718v1.344c0 1.12-.97 2.09-2.09 2.09H15.035c-1.12 0-2.016-.97-2.016-2.09v-14.86c0-.671-.224-1.268-.598-1.791l-2.24-2.987c-.15-.224-.224-.597-.224-.821v-2.613c0-1.12.896-2.091 2.016-2.091H26.46c1.12 0 2.09.97 2.09 2.09zm17.546-2.091c0-1.12.896-2.016 2.016-2.016h13.739c1.12 0 2.09.896 2.09 2.016v2.165c0 .97.747 1.718 1.718 1.718h2.538c.896 0 1.718-.747 1.718-1.718v-1.642c0-4.704-3.883-8.512-8.587-8.512H41.915c-.971 0-1.792.746-1.792 1.717V137.5c0 .97.821 1.718 1.792 1.718h5.525a1.69 1.69 0 0 0 1.717-1.718v-21.205c0-.597-.224-1.27-.597-1.792l-2.24-2.987a1.5 1.5 0 0 1-.224-.821zm28.672 22.699a8.51 8.51 0 0 0 8.512 8.512h20.31a1.69 1.69 0 0 0 1.717-1.718v-28.97a8.51 8.51 0 0 0-8.512-8.512H83.28a8.51 8.51 0 0 0-8.512 8.512v1.642c0 .97.747 1.718 1.717 1.718h2.539a1.69 1.69 0 0 0 1.717-1.718v-2.165c0-1.12.971-2.016 2.091-2.016h14.485c1.12 0 2.016.896 2.016 2.016v3.808c0 1.12-.896 2.09-2.016 2.09H83.58c-4.704 0-8.811 3.809-8.811 8.513zm21.504.448c0 1.12-.896 2.09-2.016 2.09H82.832c-1.12 0-2.09-.97-2.09-2.09v-9.26c0-1.044.895-2.015 1.94-2.015h11.574c1.12 0 2.016.896 2.016 2.016zm40.32-19.19c.97 0 1.643-.821 1.643-1.717v-2.539a1.69 1.69 0 0 0-1.718-1.717h-14.112c-.97 0-2.016-.747-2.016-1.792v-9.184c0-1.12.971-2.09 2.016-2.09h13.814c1.12 0 2.016.97 2.016 2.09v1.344c0 .97.821 1.792 1.717 1.792h2.613c.896 0 1.718-.821 1.718-1.792v-.97c0-4.705-3.883-8.513-8.587-8.513h-12.693c-4.704 0-8.587 3.808-8.587 8.512v8.662c0 1.045-.97 1.94-2.016 1.94h-1.941c-.971 0-1.792.748-1.792 1.718v2.539c0 .896.821 1.717 1.792 1.717h1.941c1.12 0 2.016.896 2.016 1.942V137.5c0 .97.747 1.718 1.717 1.718h5.6a1.69 1.69 0 0 0 1.718-1.718v-20.31c0-.671-.224-1.268-.598-1.791l-1.866-2.464c-.374-.523-.075-.97.522-.97zm24.043 21.28c-1.12 0-2.016-.97-2.016-2.09v-14.86c0-.671-.224-1.343-.598-1.791l-2.24-2.987c-.224-.298-.224-.597-.224-.821v-2.688c0-1.12.896-2.016 2.016-2.016H174.3c.97 0 1.717-.821 1.717-1.717v-2.54a1.69 1.69 0 0 0-1.717-1.716h-16.726c-1.045 0-2.016-.822-2.016-1.792v-6.571c0-.896-.746-1.717-1.717-1.717h-2.539c-.97 0-1.717.82-1.717 1.717v6.421c0 1.046-.97 1.942-2.016 1.942h-1.867a1.69 1.69 0 0 0-1.717 1.717v2.539c0 .896.747 1.717 1.717 1.717h1.867c1.045 0 2.016.896 2.016 1.941v22.699c0 4.704 3.808 8.587 8.512 8.587h9.333c4.704 0 8.587-3.808 8.587-8.512v-.896c0-.971-.821-1.718-1.717-1.718h-2.539c-.896 0-1.717.747-1.717 1.718v1.344c0 1.12-.896 2.09-2.016 2.09zM28.549 51.93c0 .97.747 1.717 1.718 1.717h2.538a1.69 1.69 0 0 0 1.718-1.717v-1.568a8.51 8.51 0 0 0-8.512-8.512H12.57c-4.704 0-8.587 3.808-8.587 8.512v22.176c0 4.704 3.883 8.512 8.587 8.512h13.44a8.51 8.51 0 0 0 8.512-8.512v-.896a1.69 1.69 0 0 0-1.718-1.717h-2.538a1.69 1.69 0 0 0-1.718 1.717v1.344c0 1.12-.97 2.09-2.09 2.09H15.035c-1.12 0-2.016-.97-2.016-2.09v-14.86c0-.672-.224-1.269-.598-1.792l-2.24-2.986c-.15-.224-.224-.598-.224-.822v-2.613c0-1.12.896-2.09 2.016-2.09H26.46c1.12 0 2.09.97 2.09 2.09zm11.2 20.533c0 4.704 3.883 8.587 8.587 8.587h13.365c4.704 0 8.587-3.883 8.587-8.587v-22.1c0-4.705-3.883-8.513-8.587-8.513H48.336c-4.704 0-8.587 3.808-8.587 8.512zm9.035.523v-14.86c0-.672-.224-1.344-.597-1.792l-2.24-2.986c-.224-.299-.224-.598-.224-.822v-2.688c0-1.12.896-2.016 2.016-2.016h14.485c1.12 0 2.09.896 2.09 2.016v23.147c0 1.12-.97 2.09-2.09 2.09H50.8c-1.12 0-2.016-.97-2.016-2.09m49.28-25.163c1.12 0 2.016.971 2.016 2.091v2.613c0 .224-.075.598-.224.822l-2.24 2.986c-.373.523-.597 1.12-.597 1.792v14.86c0 1.12-.896 2.09-2.016 2.09H83.579c-1.12 0-2.091-.97-2.091-2.09V49.837c0-1.12.97-2.016 2.09-2.016zm7.99-17.322c0-.896-.747-1.718-1.718-1.718h-2.539c-.896 0-1.717.822-1.717 1.718v9.408c0 1.045-.97 1.941-2.016 1.941H84.027a8.51 8.51 0 0 0-8.512 8.512v22.176a8.51 8.51 0 0 0 8.512 8.512h20.309a1.69 1.69 0 0 0 1.717-1.717zm35.765 19.861a8.51 8.51 0 0 0-8.512-8.512h-13.515a8.51 8.51 0 0 0-8.512 8.512v22.176a8.51 8.51 0 0 0 8.512 8.512h13.515a8.51 8.51 0 0 0 8.512-8.512v-.896a1.69 1.69 0 0 0-1.718-1.717h-2.538a1.69 1.69 0 0 0-1.718 1.717v1.344c0 1.12-.896 2.09-2.016 2.09h-10.826c-1.12 0-2.016-.97-2.016-2.09V67.31c0-1.12.896-2.016 2.016-2.016h10.304a8.51 8.51 0 0 0 8.512-8.512zm-24.566-.523c0-1.12.896-2.016 2.016-2.016h14.56c1.12 0 2.016.896 2.016 2.016v7.467c0 1.045-.896 2.016-1.941 2.016h-14.635a2.01 2.01 0 0 1-2.016-2.016z"/>
</svg>
